<?xml version="1.0" standalone="no"?>
<!DOCTYPE svg PUBLIC "-//W3C//DTD SVG 20010904//EN"
 "http://www.w3.org/TR/2001/REC-SVG-20010904/DTD/svg10.dtd">
<svg version="1.0" xmlns="http://www.w3.org/2000/svg"
 width="612.000000pt" height="408.000000pt" viewBox="0 0 612.000000 408.000000"
 preserveAspectRatio="xMidYMid meet">
<metadata>
Created by potrace 1.10, written by Peter Selinger 2001-2011
</metadata>
<g transform="translate(0.000000,408.000000) scale(0.100000,-0.100000)"
fill="#000000" stroke="none">
<path d="M1609 3656 c-2 -2 -26 -6 -54 -9 -84 -9 -217 -52 -305 -99 -169 -90
-328 -259 -405 -428 l-34 -75 -295 -3 -296 -2 -6 -25 c-5 -21 4 -37 52 -93 32
-37 63 -74 70 -82 11 -13 9 -25 -13 -68 l-26 -52 18 -48 c11 -26 42 -71 72
-103 29 -31 53 -59 53 -62 0 -4 -13 -7 -30 -7 -16 0 -30 -3 -31 -7 -1 -17 -7
-40 -22 -90 l-16 -52 65 -61 c36 -33 83 -72 104 -86 22 -15 54 -49 72 -78 42
-66 146 -176 168 -176 9 0 25 8 36 18 10 10 34 28 52 41 l34 24 -56 56 -56 56
69 26 69 26 64 -86 c81 -110 250 -281 277 -281 5 0 11 -4 13 -8 9 -22 262
-145 293 -143 2 0 23 -6 46 -14 22 -8 43 -14 47 -14 4 1 9 1 12 0 56 -20 380
-18 380 2 0 5 4 6 9 3 5 -4 22 -1 38 5 15 6 46 12 68 12 35 2 40 5 40 26 0 34
-29 50 -52 29 -10 -9 -29 -19 -43 -22 -14 -2 -45 -9 -70 -14 -54 -12 -59 -12
-185 -13 -106 -1 -182 7 -220 21 -13 5 -25 6 -28 4 -3 -3 -22 2 -43 11 -22 9
-47 18 -56 20 -37 8 -179 82 -270 142 -89 58 -203 166 -231 218 -5 11 25 -17
67 -62 161 -171 388 -265 641 -265 146 0 259 24 398 86 141 62 305 200 385
324 l38 59 49 -34 c57 -38 104 -44 112 -13 6 24 11 25 32 6 11 -10 49 -15 119
-18 l104 -3 -4 88 c-1 48 0 87 3 87 4 0 12 -21 18 -46 7 -28 26 -60 49 -84
l37 -39 98 -3 99 -3 -4 73 c-2 39 -2 72 0 72 1 0 17 -17 35 -37 18 -20 57 -53
87 -72 53 -35 58 -36 150 -36 90 0 97 2 142 32 l47 32 21 -30 c21 -29 23 -29
116 -29 67 0 96 4 98 13 3 6 7 25 11 42 7 33 5 34 51 -30 13 -18 29 -21 138
-25 68 -3 122 -2 120 2 -3 5 -7 16 -9 25 -2 10 -32 97 -66 193 -34 96 -64 191
-66 211 -4 27 10 76 51 189 31 84 61 161 67 172 9 17 7 24 -17 44 l-29 23
-797 1 c-632 0 -798 3 -798 13 -1 21 -68 147 -114 211 -107 149 -274 278 -436
334 -107 37 -128 42 -201 52 -75 9 -212 13 -220 6z m227 -37 c290 -51 548
-247 665 -505 16 -35 29 -65 29 -66 0 -2 -70 -2 -155 -1 l-156 1 -41 38 c-47
42 -259 147 -403 199 -324 118 -585 136 -735 53 -49 -27 -53 -28 -35 -8 116
133 345 260 522 290 71 12 241 11 309 -1z m-341 -280 c162 -32 323 -89 528
-186 64 -31 117 -59 117 -63 0 -3 -6 -14 -13 -24 -13 -17 -21 -15 -153 37
-340 136 -604 185 -769 142 -121 -32 -175 -84 -178 -173 l-2 -47 808 -3 807
-2 0 -41 c0 -22 5 -49 10 -60 7 -13 7 -19 0 -19 -5 0 -10 7 -10 15 0 12 -14
15 -70 15 -38 0 -70 -3 -70 -7 0 -5 14 -20 31 -34 l32 -26 1 -250 1 -250 -68
0 c-43 0 -67 4 -66 11 1 6 1 23 0 38 l-1 27 -37 -16 c-47 -19 -155 -13 -205
13 -66 33 -138 95 -159 136 -16 32 -20 54 -17 99 7 98 73 157 184 167 44 4 63
-1 139 -37 48 -22 89 -41 91 -41 2 0 4 38 4 85 l0 85 -400 0 c-236 0 -400 -4
-400 -9 0 -5 16 -19 35 -31 35 -21 35 -23 35 -91 0 -64 9 -85 26 -58 3 6 26
20 50 31 59 26 114 11 167 -44 l37 -39 -27 -34 c-16 -19 -30 -30 -31 -25 -2 6
-17 17 -33 25 -39 21 -79 4 -141 -61 l-48 -49 0 -93 c0 -85 -1 -92 -17 -84
-10 5 -39 7 -65 6 l-48 -3 0 35 c0 35 0 35 -32 28 -83 -21 -161 8 -237 87 -56
58 -70 92 -64 154 14 128 147 184 272 115 30 -17 56 -30 58 -30 1 0 3 38 3 85
l0 85 -265 0 c-154 0 -265 -4 -265 -9 0 -5 16 -19 35 -31 l35 -22 0 -249 c0
-178 -3 -248 -11 -243 -19 11 -99 12 -107 0 -4 -6 -9 115 -12 269 l-5 280
-117 3 c-67 1 -118 -1 -118 -6 0 -6 16 -22 35 -37 35 -26 36 -28 33 -91 l-3
-64 -157 -3 c-150 -2 -157 -3 -182 -26 -30 -29 -33 -60 -8 -90 l17 -22 95 22
c147 34 149 34 203 0 90 -58 132 -165 93 -239 -33 -62 -107 -109 -187 -119
-27 -3 -52 -10 -55 -14 -2 -4 12 -24 33 -43 l38 -35 -22 -16 c-12 -8 -29 -23
-38 -31 -18 -18 -16 -19 -41 21 -52 83 -89 124 -115 130 -15 3 -44 21 -65 39
l-37 32 13 62 c12 58 14 62 41 62 23 0 35 -11 70 -61 l41 -61 45 6 c25 3 68
18 97 33 40 22 56 39 75 76 17 34 21 51 13 59 -11 11 -13 10 -151 -27 -50 -14
-57 -13 -99 5 -52 23 -112 66 -112 81 0 16 28 10 33 -8 4 -16 5 -16 6 0 1 11
-7 21 -19 24 -11 3 -20 14 -20 24 0 14 -7 19 -30 19 -36 0 -50 23 -50 81 0 35
6 47 35 74 43 41 102 55 231 55 l95 0 -3 43 -3 42 -199 1 -199 1 -29 32 c-16
18 -27 38 -25 44 3 9 101 13 370 15 202 1 367 4 367 6 0 2 -7 23 -15 46 -32
91 -9 183 57 227 112 74 255 87 483 42z m-566 -138 c-11 -30 -8 -86 6 -136 5
-18 1 -20 -44 -20 -28 0 -51 3 -51 8 0 4 21 48 46 98 45 90 65 113 43 50z
m571 20 c0 -4 18 -8 41 -9 22 -1 46 -5 52 -9 7 -4 23 -9 37 -11 29 -4 257 -79
282 -92 10 -6 28 -10 40 -10 17 0 19 -3 10 -9 -10 -6 -4 -10 20 -15 29 -7 31
-9 13 -16 -24 -10 -93 -1 -120 15 -11 7 -45 20 -75 30 -30 9 -62 19 -70 23
-49 19 -155 31 -295 31 -155 1 -189 -8 -257 -68 -29 -25 -44 -31 -82 -31 -46
0 -46 0 -46 34 0 26 9 43 36 70 20 20 42 36 49 36 7 0 15 4 17 9 2 6 15 11 30
13 15 2 30 7 33 10 10 9 285 9 285 -1z m229 -130 c68 -17 131 -35 140 -41 10
-6 -113 -9 -342 -8 -385 1 -388 1 -295 49 63 32 107 39 243 34 102 -3 156 -10
254 -34z m441 -31 c0 -5 -5 -10 -11 -10 -5 0 -7 5 -4 10 3 6 8 10 11 10 2 0 4
-4 4 -10z m728 -177 c23 -76 45 -153 48 -170 8 -42 29 -60 49 -43 11 9 15 44
17 159 l3 146 52 1 c29 0 56 4 60 7 3 4 -26 7 -65 7 l-72 0 0 -160 c0 -95 -4
-160 -10 -160 -5 0 -10 73 -12 175 l-3 175 88 0 87 0 0 -27 c0 -16 1 -186 3
-379 l2 -350 -80 4 c-44 2 -83 7 -87 11 -3 3 -8 17 -10 31 -1 14 -6 28 -11 31
-4 3 -29 78 -55 167 -27 89 -51 164 -54 168 -4 3 -4 -87 -2 -200 l5 -206 -90
0 -91 0 0 375 0 375 93 0 94 0 41 -137z m370 126 c-2 -6 -20 -29 -40 -51 -20
-23 -40 -57 -44 -77 -8 -36 -8 -35 -14 19 -3 30 -3 67 -1 82 3 24 8 27 50 31
25 2 47 4 49 5 1 1 1 -3 0 -9z m287 -8 c50 -22 91 -69 105 -119 14 -52 13
-450 -2 -493 -32 -95 -94 -134 -213 -134 -66 0 -89 4 -129 25 -59 30 -91 70
-105 130 -14 62 -14 410 0 467 13 50 62 107 113 129 47 20 182 18 231 -5z
m169 -154 c32 -89 60 -174 63 -190 5 -26 -11 -98 -27 -122 -4 -5 -20 -47 -35
-92 -17 -50 -33 -83 -41 -83 -17 0 -17 5 -2 33 12 23 15 414 3 484 -4 25 -21
58 -46 88 -21 26 -39 48 -39 49 0 1 15 0 34 -2 l33 -4 57 -161z m175 91 c38
-144 35 -143 60 -28 12 57 23 106 25 107 2 2 40 3 84 1 l80 -3 -18 -55 c-10
-30 -35 -100 -55 -155 -51 -135 -53 -158 -20 -252 52 -148 95 -275 95 -279 0
-2 -44 -4 -99 -4 l-98 0 -17 83 c-18 93 -21 147 -6 147 6 0 10 -9 10 -19 0
-27 37 -182 46 -190 8 -7 -4 91 -16 134 -4 17 -11 43 -14 58 -5 22 -12 28 -29
25 -20 -3 -25 -16 -47 -120 l-24 -118 -84 0 c-76 0 -83 2 -77 18 4 9 14 38 22
64 9 26 20 45 24 42 5 -3 6 1 3 9 -3 8 11 57 32 108 32 83 36 102 31 157 -2
34 -9 68 -15 75 -9 11 -72 185 -76 210 -1 7 -7 22 -14 34 -7 12 -12 24 -12 27
0 3 42 6 94 6 l94 0 21 -82z m-962 -13 c0 -48 -1 -85 -2 -83 -4 3 -45 154 -45
163 0 3 10 5 23 5 23 0 24 -3 24 -85z m1012 48 c-5 -21 -9 -42 -9 -48 -1 -19
-29 40 -30 63 0 17 6 22 24 22 23 0 23 -2 15 -37z m232 -26 c-62 -154 -120
-324 -113 -331 3 -3 1 -6 -5 -6 -18 0 -8 85 15 128 11 22 18 43 15 46 -4 3 -1
6 5 6 7 0 11 3 10 8 -2 7 37 139 53 181 8 18 13 21 22 12 8 -8 8 -19 -2 -44z
m-2636 -89 c1 -30 -4 -49 -12 -52 -7 -3 -13 -2 -13 2 0 15 -71 42 -111 42
-110 0 -199 -93 -199 -208 0 -23 5 -42 10 -42 6 0 10 -8 10 -17 0 -15 -2 -16
-10 -3 -6 9 -10 10 -10 3 0 -6 5 -15 10 -18 6 -3 10 -13 10 -21 0 -8 -3 -13
-8 -10 -9 5 -7 -56 3 -101 5 -20 4 -33 -2 -33 -6 0 -10 -34 -10 -80 0 -53 3
-80 11 -80 6 0 5 -4 -3 -9 -8 -5 -12 -15 -9 -23 4 -10 -3 -15 -23 -16 -16 -1
-29 2 -29 8 0 5 -5 10 -10 10 -6 0 -22 8 -36 17 -23 15 -24 18 -10 28 8 6 19
23 25 36 12 32 12 558 0 580 -8 15 -2 18 49 24 31 4 62 8 67 10 6 2 75 3 155
2 l145 -2 0 -47z m850 38 c13 -5 13 -91 0 -90 -6 0 -32 11 -60 24 -69 33 -193
35 -246 3 -24 -14 -41 -18 -50 -12 -23 14 -105 11 -119 -6 -8 -10 -31 -14 -73
-13 -56 1 -78 -2 -114 -14 -5 -2 -8 13 -9 32 0 19 -4 45 -8 57 l-7 23 223 2
c220 3 443 0 463 -6z m210 4 c4 -6 10 -8 15 -5 25 15 30 -34 32 -331 l3 -309
95 -6 c128 -8 130 -6 125 117 -4 91 6 128 21 82 7 -19 8 -228 1 -234 -1 -1
-33 -4 -70 -7 -64 -4 -117 7 -117 26 0 4 -7 7 -15 7 -8 0 -15 -4 -15 -8 0 -5
-11 -14 -24 -21 -19 -11 -28 -10 -52 3 -59 31 -60 33 -37 53 21 18 22 25 24
298 1 295 1 315 -13 315 -4 0 -8 7 -8 15 0 17 25 20 35 5z m-1962 -6 c9 -3 17
-12 17 -19 0 -9 -24 -13 -82 -14 -98 -2 -144 -8 -177 -24 -19 -10 -25 -8 -37
8 -7 11 -18 25 -23 32 -8 9 -2 13 22 15 63 7 264 9 280 2z m309 -34 c-4 -25
-9 -30 -33 -30 -32 0 -68 -39 -47 -51 8 -5 13 -35 14 -79 1 -71 0 -71 -25 -68
-14 1 -31 -1 -38 -5 -6 -4 -28 2 -48 13 -37 21 -123 28 -141 11 -9 -10 -73
-22 -129 -24 -26 -2 -30 2 -33 25 -4 36 10 39 185 41 172 2 173 3 173 101 0
43 -5 77 -12 84 -9 9 5 12 63 12 l76 0 -5 -30z m13 -240 c0 -99 -3 -180 -7
-180 -5 0 -8 6 -8 13 0 7 -29 42 -65 77 -36 35 -65 68 -65 72 0 4 23 8 51 8
l52 0 -6 81 c-4 62 -9 84 -24 94 -16 13 -14 14 27 15 l45 0 0 -180z m1075 173
c-1 -5 -11 -20 -23 -35 l-22 -26 -40 34 -40 34 63 0 c34 0 62 -3 62 -7z m1137
-115 c-3 -7 -5 -2 -5 12 0 14 2 19 5 13 2 -7 2 -19 0 -25z m-1185 -63 c4 -34
2 -37 -46 -61 -28 -14 -68 -44 -88 -66 l-38 -40 -1 -96 c-1 -54 -2 -104 -3
-112 -2 -8 -3 -23 -4 -32 -2 -22 -35 -24 -52 -3 -7 9 -15 13 -18 10 -3 -3 -16
5 -29 17 -21 20 -22 23 -6 40 12 14 17 45 20 145 4 122 6 129 31 157 15 16 45
37 67 47 35 16 42 16 62 4 31 -20 57 -19 78 5 10 11 19 20 20 20 2 0 5 -16 7
-35z m-1592 -15 c0 -11 -2 -20 -3 -20 -2 0 -12 9 -22 20 -18 19 -17 20 3 20
15 0 22 -6 22 -20z m1137 -278 c48 -15 79 -32 97 -53 36 -41 130 -99 159 -99
42 0 47 16 47 144 l0 120 55 53 c61 59 98 68 130 33 10 -11 25 -20 34 -20 9 0
43 -27 76 -60 33 -34 80 -74 105 -90 51 -32 137 -60 186 -60 18 0 35 -4 38 -9
9 -15 -88 -143 -159 -210 -358 -334 -897 -331 -1248 8 -76 72 -132 147 -118
155 5 3 16 22 26 42 l17 36 47 -45 c57 -56 137 -107 168 -107 44 0 54 35 53
187 -1 76 -1 154 -1 173 l1 35 108 -106 c100 -97 113 -107 179 -127z m-793
159 c10 -15 -43 -69 -79 -83 -19 -6 -35 -15 -35 -19 0 -4 -17 -7 -39 -7 -29
-1 -44 5 -60 24 -11 13 -21 28 -21 33 0 4 -9 16 -20 26 -28 25 -20 28 25 9 35
-14 97 -17 120 -5 6 3 21 7 34 9 14 2 32 7 40 12 20 12 28 12 35 1z m186 -35
c5 -13 13 -27 19 -30 14 -9 5 -109 -11 -138 -18 -30 -35 -48 -46 -48 -6 0 -12
-4 -14 -9 -1 -6 -16 -12 -32 -15 -16 -3 -47 -14 -69 -25 l-40 -20 -28 22 c-31
25 -37 43 -14 45 8 1 22 3 30 4 8 1 15 5 15 10 0 4 7 8 15 8 38 0 108 61 130
114 8 20 15 51 15 71 0 40 16 46 30 11z m620 -66 c0 -25 -4 -30 -25 -30 -14 0
-25 4 -25 9 0 5 -9 11 -20 14 -33 8 -23 24 16 25 20 1 39 4 42 7 10 10 12 5
12 -25z m862 -25 c2 -19 2 -35 0 -35 -1 0 -34 7 -72 16 -69 15 -106 39 -79 49
15 5 130 11 140 8 4 -2 9 -19 11 -38z m783 18 c6 -16 9 -58 7 -95 l-4 -67 -65
-7 c-41 -4 -73 -2 -90 5 -41 19 -22 34 42 34 33 0 66 4 73 10 7 6 12 35 12 78
0 73 9 87 25 42z m719 -124 c-13 -29 -23 -38 -48 -42 -45 -7 -121 7 -140 26
-15 15 -11 16 60 19 74 3 78 4 94 33 10 17 16 33 13 37 -2 4 -1 19 3 34 7 26
8 24 20 -22 12 -42 11 -54 -2 -85z m-2804 76 c0 -49 -22 -55 -79 -22 -71 40
-67 57 13 57 l66 0 0 -35z m546 18 c43 4 44 4 44 -25 0 -34 -24 -47 -54 -28
-11 8 -33 20 -48 28 -16 7 -28 20 -28 28 0 12 4 13 21 3 12 -6 42 -9 65 -6z
m909 -30 c0 -21 -5 -29 -20 -31 -21 -3 -115 44 -115 56 0 4 30 6 67 5 68 -1
68 -2 68 -30z m1125 23 c0 -8 -4 -18 -10 -21 -5 -3 -10 -17 -10 -30 0 -63
-161 -109 -251 -71 l-33 14 60 1 c77 1 94 3 94 11 0 4 12 10 28 13 15 3 45 25
67 51 42 48 55 55 55 32z m510 -108 c0 -16 -11 -18 -89 -18 -72 0 -93 3 -107
18 -17 16 -14 17 69 20 78 2 87 5 93 24 6 21 7 21 20 -3 7 -13 13 -32 14 -41z
m-1697 27 c-3 -9 -8 -14 -10 -11 -3 3 -2 9 2 15 9 16 15 13 8 -4z m-1525 -141
c-7 -6 -68 82 -68 98 0 7 16 -11 36 -40 20 -30 34 -56 32 -58z m-238 14 c15
-13 20 -23 13 -25 -7 -2 -29 -18 -49 -34 l-38 -30 -20 21 -21 20 35 34 c42 40
48 42 80 14z m1655 -18 c-3 -5 -12 -10 -18 -10 -7 0 -6 4 3 10 19 12 23 12 15
0z m-1579 -59 c9 -12 4 -21 -28 -44 l-40 -29 -24 23 c-13 12 -24 25 -24 29 0
4 17 19 37 33 38 27 50 26 79 -12z m761 -247 c-3 -3 -12 -4 -19 -1 -8 3 -5 6
6 6 11 1 17 -2 13 -5z m246 -1 c-7 -2 -21 -2 -30 0 -10 3 -4 5 12 5 17 0 24
-2 18 -5z m347 -98 c0 -8 -2 -15 -4 -15 -2 0 -6 7 -10 15 -3 8 -1 15 4 15 6 0
10 -7 10 -15z"/>
<path d="M965 3000 c-24 -6 -20 -8 27 -9 35 -1 58 -6 61 -13 4 -10 6 -10 6 -1
2 22 -48 34 -94 23z"/>
<path d="M302 2980 c0 -14 2 -19 5 -12 2 6 2 18 0 25 -3 6 -5 1 -5 -13z"/>
<path d="M364 2980 c0 -13 4 -16 10 -10 7 7 7 13 0 20 -6 6 -10 3 -10 -10z"/>
<path d="M473 2993 c69 -5 76 -22 10 -25 l-48 -1 43 -4 c25 -3 50 1 58 8 23
19 -2 29 -66 27 l-55 -2 58 -3z"/>
<path d="M648 2993 c65 -5 68 -21 5 -26 l-48 -4 50 1 c37 1 50 5 50 16 0 11
-13 15 -55 16 l-55 1 53 -4z"/>
<path d="M815 2993 c27 -3 55 -9 62 -15 9 -7 13 -7 13 0 0 15 -27 22 -78 20
l-47 -2 50 -3z"/>
<path d="M1160 2993 c30 -2 58 -10 63 -16 6 -8 7 -7 4 3 -3 11 -19 15 -63 16
l-59 1 55 -4z"/>
<path d="M1335 2993 c68 -5 72 -20 8 -26 l-48 -4 50 1 c37 1 50 5 50 16 0 12
-13 15 -58 16 l-57 1 55 -4z"/>
<path d="M1505 2993 c70 -5 71 -21 3 -26 l-53 -4 55 1 c42 1 55 5 55 16 0 12
-13 15 -58 16 l-57 1 55 -4z"/>
<path d="M1675 2993 c70 -5 71 -21 3 -26 l-53 -4 55 1 c42 1 55 5 55 16 0 12
-13 15 -58 16 l-57 1 55 -4z"/>
<path d="M1845 2993 c70 -5 71 -21 3 -26 l-53 -4 55 1 c42 1 55 5 55 16 0 12
-13 15 -58 16 l-57 1 55 -4z"/>
<path d="M2013 2993 c31 -2 57 -8 57 -13 0 -5 -26 -11 -57 -13 l-58 -3 55 -2
c62 -2 95 11 70 28 -8 5 -40 9 -70 8 l-55 -2 58 -3z"/>
<path d="M2163 2993 c15 -2 39 -2 55 0 15 2 2 4 -28 4 -30 0 -43 -2 -27 -4z"/>
<path d="M2365 2993 c70 -5 71 -21 3 -26 l-53 -4 55 1 c42 1 55 5 55 16 0 12
-13 15 -58 16 l-57 1 55 -4z"/>
<path d="M2503 2993 c15 -2 37 -2 50 0 12 2 0 4 -28 4 -27 0 -38 -2 -22 -4z"/>
<path d="M2584 2979 c0 -13 3 -15 13 -7 7 6 13 12 13 13 0 2 -6 5 -13 8 -7 3
-13 -3 -13 -14z"/>
<path d="M803 2963 c15 -2 37 -2 50 0 12 2 0 4 -28 4 -27 0 -38 -2 -22 -4z"/>
<path d="M953 2963 c8 -7 77 -6 85 2 3 3 -16 5 -43 5 -27 0 -45 -3 -42 -7z"/>
<path d="M1143 2963 c15 -2 37 -2 50 0 12 2 0 4 -28 4 -27 0 -38 -2 -22 -4z"/>
<path d="M2178 2963 c12 -2 32 -2 45 0 12 2 2 4 -23 4 -25 0 -35 -2 -22 -4z"/>
<path d="M2508 2963 c12 -2 32 -2 45 0 12 2 2 4 -23 4 -25 0 -35 -2 -22 -4z"/>
<path d="M996 2815 c4 -8 8 -15 10 -15 2 0 4 7 4 15 0 8 -4 15 -10 15 -5 0 -7
-7 -4 -15z"/>
<path d="M463 2783 c-24 -26 -25 -26 -19 -5 4 12 3 22 -1 22 -10 0 -33 -59
-32 -81 1 -8 4 -3 8 11 4 14 12 24 18 23 6 -1 21 9 33 22 26 28 50 34 29 8
-12 -14 -9 -13 16 2 17 11 32 20 34 22 2 2 -10 3 -28 3 -22 0 -40 -9 -58 -27z"/>
<path d="M2154 2775 c-36 -48 -22 -63 38 -42 30 11 36 16 20 16 -13 1 -32 -4
-44 -10 -36 -19 -34 2 4 37 21 19 31 34 23 34 -8 0 -26 -16 -41 -35z"/>
<path d="M2201 2784 l-24 -24 41 18 c22 9 38 20 35 24 -8 14 -27 7 -52 -18z"/>
<path d="M400 2785 c0 -8 -9 -15 -20 -15 -22 0 -25 -8 -9 -30 9 -13 10 -13 6
2 -4 10 1 18 14 21 16 4 29 37 14 37 -3 0 -5 -7 -5 -15z"/>
<path d="M516 2770 c-27 -15 -58 -39 -70 -51 l-21 -23 22 18 c12 10 45 29 73
42 27 13 50 28 50 34 0 13 4 14 -54 -20z"/>
<path d="M994 2766 c0 -13 4 -22 9 -19 10 6 9 31 -2 37 -5 3 -8 -5 -7 -18z"/>
<path d="M2250 2780 c-11 -7 -3 -9 26 -7 23 1 40 5 37 10 -6 10 -45 9 -63 -3z"/>
<path d="M1292 2744 c-7 -8 -8 -14 -3 -14 10 0 25 19 20 25 -2 1 -10 -3 -17
-11z"/>
<path d="M1794 2744 c-34 -18 -58 -38 -33 -29 10 4 20 2 23 -3 3 -5 -8 -12
-26 -16 -62 -12 -18 -18 51 -6 78 13 105 32 72 50 -12 6 -21 8 -21 5 0 -3 -8
-1 -18 4 -13 7 -27 5 -48 -5z m85 -14 c14 0 14 -2 1 -10 -19 -12 -87 -13 -94
-1 -9 13 15 21 48 16 16 -3 36 -5 45 -5z"/>
<path d="M1818 2723 c7 -3 16 -2 19 1 4 3 -2 6 -13 5 -11 0 -14 -3 -6 -6z"/>
<path d="M2268 2753 c6 -2 18 -2 25 0 6 3 1 5 -13 5 -14 0 -19 -2 -12 -5z"/>
<path d="M2060 2740 c-9 -6 -10 -10 -3 -10 6 0 15 5 18 10 8 12 4 12 -15 0z"/>
<path d="M350 2715 c8 -10 9 -19 3 -27 -7 -9 -4 -19 9 -30 10 -10 18 -14 18
-9 0 6 -5 13 -11 16 -6 4 -8 13 -5 21 7 18 -3 44 -16 44 -6 0 -5 -6 2 -15z"/>
<path d="M994 2710 c0 -13 4 -16 10 -10 7 7 7 13 0 20 -6 6 -10 3 -10 -10z"/>
<path d="M1443 2719 c-47 -14 -83 -62 -83 -113 0 -101 86 -117 178 -32 27 26
32 37 32 78 0 35 -5 50 -17 56 -30 15 -77 20 -110 11z m80 -28 c15 -2 24 -46
15 -73 -12 -33 -72 -71 -112 -70 -37 1 -40 5 -39 55 2 33 9 48 31 68 28 25 46
28 105 20z"/>
<path d="M2230 2722 c-81 -38 -107 -119 -64 -189 28 -45 168 -20 232 40 27 26
32 38 32 77 0 41 -3 48 -27 60 -32 15 -151 23 -173 12z m127 -24 c15 -6 31
-11 35 -10 14 3 19 -43 9 -71 -6 -15 -23 -33 -38 -39 -16 -7 -30 -16 -33 -20
-3 -4 -17 -10 -30 -12 -14 -2 -25 -5 -25 -6 0 -1 -13 -4 -29 -6 -39 -7 -76 28
-76 70 1 31 30 73 66 94 25 15 86 15 121 0z"/>
<path d="M1717 2713 c-4 -3 -7 -11 -7 -17 0 -6 5 -5 12 2 6 6 9 14 7 17 -3 3
-9 2 -12 -2z"/>
<path d="M2071 2704 c0 -11 3 -14 6 -6 3 7 2 16 -1 19 -3 4 -6 -2 -5 -13z"/>
<path d="M391 2694 c0 -11 3 -14 6 -6 3 7 2 16 -1 19 -3 4 -6 -2 -5 -13z"/>
<path d="M1260 2690 c-9 -6 -10 -10 -3 -10 6 0 15 5 18 10 8 12 4 12 -15 0z"/>
<path d="M2032 2688 c-8 -8 -9 -15 -1 -25 9 -9 8 -17 -1 -28 -10 -12 -9 -16 4
-21 9 -3 16 -14 17 -23 0 -10 2 -12 6 -3 3 7 0 19 -6 26 -6 7 -9 20 -5 29 3 8
0 18 -6 22 -9 6 -9 10 1 16 7 4 11 10 8 13 -3 3 -11 0 -17 -6z"/>
<path d="M994 2660 c0 -13 4 -16 10 -10 7 7 7 13 0 20 -6 6 -10 3 -10 -10z"/>
<path d="M994 2611 c0 -11 4 -17 8 -15 4 3 8 12 8 20 0 8 -4 14 -8 14 -4 0 -8
-9 -8 -19z"/>
<path d="M1257 2619 c7 -7 15 -10 18 -7 3 3 -2 9 -12 12 -14 6 -15 5 -6 -5z"/>
<path d="M994 2559 c0 -10 4 -19 8 -19 4 0 8 6 8 14 0 8 -4 17 -8 20 -4 2 -8
-4 -8 -15z"/>
<path d="M2406 2549 c-21 -16 -35 -29 -31 -29 4 0 24 12 43 27 l35 26 -7 -29
c-4 -16 -15 -37 -23 -47 -9 -9 -13 -20 -10 -23 8 -8 47 56 47 78 0 28 -13 27
-54 -3z"/>
<path d="M1560 2521 c-12 -31 -40 -61 -40 -44 0 5 6 15 13 23 6 8 1 5 -13 -6
-14 -12 -32 -25 -40 -29 -13 -8 -13 -7 -1 8 18 22 2 21 -28 -2 l-23 -18 33 3
c81 7 84 8 103 47 10 21 16 40 13 43 -2 3 -10 -9 -17 -25z"/>
<path d="M1485 2515 c-27 -13 -59 -24 -69 -24 -13 -1 -17 -4 -10 -11 9 -9 134
43 134 55 0 6 5 8 -55 -20z"/>
<path d="M994 2509 c0 -10 4 -19 8 -19 4 0 8 6 8 14 0 8 -4 17 -8 20 -4 2 -8
-4 -8 -15z"/>
<path d="M2405 2510 c-19 -21 -41 -28 -29 -8 4 7 3 8 -5 4 -6 -4 -9 -11 -6
-16 3 -5 0 -12 -6 -16 -8 -4 -9 -3 -5 4 9 15 1 15 -26 1 -34 -18 -32 -1 3 20
40 25 31 28 -12 5 -17 -8 -29 -20 -26 -27 5 -15 69 -28 83 -16 6 5 15 5 19 1
5 -4 5 -1 1 6 -5 8 1 23 15 38 12 13 20 24 17 24 -3 0 -13 -9 -23 -20z"/>
<path d="M806 2443 c-6 -14 -5 -15 5 -6 7 7 10 15 7 18 -3 3 -9 -2 -12 -12z"/>
<path d="M738 2383 c-21 -25 -38 -50 -38 -56 1 -7 12 2 26 18 13 17 29 29 34
28 5 -2 7 3 4 11 -3 8 -1 17 5 20 16 11 22 -11 9 -39 -6 -14 -14 -21 -17 -16
-3 5 -18 -4 -32 -20 -15 -16 -21 -29 -14 -29 7 0 18 7 25 15 7 8 17 15 22 15
24 0 66 41 66 65 0 13 -4 22 -9 19 -5 -3 -9 -16 -9 -30 0 -13 -4 -24 -10 -24
-5 0 -7 13 -3 32 4 21 3 29 -5 24 -5 -3 -12 -2 -14 2 -1 5 -20 -11 -40 -35z"/>
<path d="M1000 2411 c0 -9 77 -8 87 2 3 4 -15 7 -40 7 -26 0 -47 -4 -47 -9z"/>
<path d="M1590 2400 c0 -3 20 -6 45 -6 25 0 45 4 45 9 0 4 -20 7 -45 6 -25 -2
-45 -5 -45 -9z"/>
<path d="M421 2378 c-7 -18 -4 -27 12 -40 29 -23 34 -22 41 8 12 47 -36 76
-53 32z"/>
<path d="M2460 2393 c0 -5 18 -9 40 -9 22 -1 40 2 40 7 0 5 -18 9 -40 9 -22 0
-40 -3 -40 -7z"/>
<path d="M630 2149 c-22 -18 -22 -19 -3 -10 12 6 25 16 28 21 9 15 3 12 -25
-11z"/>
<path d="M2700 2643 c0 -252 3 -354 11 -346 7 7 10 118 10 332 0 177 2 327 5
334 2 7 25 14 50 15 85 3 86 21 2 22 l-78 0 0 -357z"/>
<path d="M2825 2922 c43 -46 47 -49 39 -28 -3 8 -22 27 -42 42 l-37 27 40 -41z"/>
<path d="M2783 2934 c10 -12 33 -50 52 -85 23 -43 35 -57 35 -42 0 12 -5 25
-11 28 -6 4 -8 13 -5 20 2 7 -16 32 -42 56 -26 24 -38 34 -29 23z"/>
<path d="M2777 2904 c4 -11 3 -15 -5 -10 -6 4 -3 -19 8 -56 23 -80 37 -115 48
-122 5 -3 -4 32 -20 77 -15 45 -28 86 -28 92 0 23 20 -16 45 -87 15 -43 29
-78 31 -78 10 0 -12 73 -39 128 -29 58 -55 96 -40 56z"/>
<path d="M2857 2693 c11 -8 32 -67 108 -303 28 -89 53 -132 42 -72 -7 34 3 41
22 18 7 -8 21 -14 31 -13 17 1 18 3 4 18 -15 17 -9 53 8 43 7 -4 7 0 0 12 -5
11 -12 26 -16 34 -3 8 -4 2 0 -15 10 -55 -16 -12 -47 76 -24 69 -28 76 -23 39
4 -25 18 -67 33 -95 35 -66 34 -65 24 -65 -5 0 -20 23 -33 51 -14 28 -33 57
-44 64 -11 8 -32 54 -50 112 -25 76 -36 99 -51 101 -14 2 -16 0 -8 -5z m133
-270 c0 -3 -7 0 -15 7 -8 7 -15 22 -15 34 0 18 2 17 15 -8 8 -15 15 -31 15
-33z m35 -53 c21 -22 35 -40 29 -40 -5 0 -28 18 -49 40 -21 22 -35 40 -29 40
5 0 28 -18 49 -40z"/>
<path d="M3023 2510 c11 -33 22 -58 25 -56 7 7 -21 96 -34 106 -6 5 -2 -18 9
-50z"/>
<path d="M3399 2976 c-28 -24 -91 -125 -71 -112 18 11 15 -5 -8 -42 -11 -18
-20 -36 -20 -40 0 -4 15 16 33 44 41 65 105 136 116 129 5 -3 7 4 4 15 -4 16
-11 12 -42 -28 -41 -51 -71 -79 -71 -66 0 4 17 28 38 53 60 72 67 88 21 47z"/>
<path d="M3343 2954 c-15 -23 -18 -24 -28 -10 -11 14 -14 14 -28 -2 -41 -45
-47 -84 -47 -303 0 -232 4 -250 61 -305 l31 -29 -34 54 -33 54 0 201 c1 212
14 316 41 316 8 0 14 -4 14 -10 0 -5 -4 -10 -8 -10 -11 0 -37 -108 -29 -117 4
-3 7 4 7 17 0 21 50 130 72 158 6 6 8 12 4 12 -3 0 -13 -12 -23 -26z"/>
<path d="M3479 2894 c20 -25 21 -39 21 -253 l0 -227 -29 -28 c-16 -16 -27 -34
-25 -41 3 -6 -2 -18 -11 -25 -8 -7 -15 -17 -15 -22 0 -5 25 14 55 44 49 47 72
80 45 63 -7 -4 -7 2 -1 18 6 14 7 28 4 31 -4 4 -7 98 -8 209 0 176 -3 207 -18
230 -10 15 -22 27 -28 27 -6 0 -1 -12 10 -26z"/>
<path d="M3406 2884 c-14 -14 -16 -47 -14 -246 3 -207 5 -232 21 -242 12 -8
22 -8 35 0 15 10 17 35 20 244 2 234 -1 260 -34 260 -7 0 -20 -7 -28 -16z m38
-41 c10 -26 6 -394 -5 -388 -5 4 -6 0 -3 -8 3 -8 1 -18 -5 -22 -14 -8 -14 -20
-16 223 -2 166 0 212 10 212 7 0 16 -7 19 -17z"/>
<path d="M3570 2480 c-6 -11 -8 -20 -6 -20 3 0 10 9 16 20 6 11 8 20 6 20 -3
0 -10 -9 -16 -20z"/>
<path d="M3540 2435 c-7 -9 -10 -18 -7 -21 3 -3 10 4 17 15 13 25 8 27 -10 6z"/>
<path d="M3607 2423 c-4 -15 -10 -39 -13 -52 -5 -16 -4 -22 4 -18 5 4 13 25
17 48 8 46 1 64 -8 22z"/>
<path d="M3567 2397 c-9 -17 -26 -48 -38 -67 l-21 -35 25 27 c14 15 27 25 29
22 3 -2 10 14 17 37 15 51 10 59 -12 16z"/>
<path d="M3497 2345 c-32 -36 -54 -65 -49 -65 5 0 15 7 22 15 7 8 16 12 21 9
5 -3 9 0 9 7 0 7 10 26 23 43 57 76 48 73 -26 -9z"/>
<path d="M3230 2393 c0 -6 9 -21 21 -34 l20 -24 -17 30 c-24 39 -24 40 -24 28z"/>
<path d="M3730 2986 c0 -1 27 -82 60 -178 l60 -175 -29 -84 c-16 -46 -43 -121
-60 -167 -34 -93 -34 -92 -23 -92 11 0 42 72 42 98 0 32 20 27 21 -5 1 -22 3
-19 9 12 4 22 6 45 3 50 -2 6 10 51 27 98 33 95 33 100 -9 205 -12 30 -19 58
-16 63 4 5 2 9 -3 9 -12 0 -22 49 -11 56 4 2 13 -12 19 -33 12 -43 39 -94 40
-75 0 15 -57 142 -64 142 -3 0 -3 -7 0 -15 4 -8 2 -15 -4 -15 -5 0 -12 9 -15
20 -3 11 -1 20 4 20 5 0 3 10 -5 23 -15 22 -14 22 32 25 79 5 74 22 -6 22 -40
0 -72 -2 -72 -4z"/>
<path d="M3995 2980 c8 -13 95 -13 115 0 10 7 -5 10 -53 10 -43 0 -66 -4 -62
-10z"/>
<path d="M3800 2957 c0 -2 19 -17 43 -32 23 -16 37 -22 30 -14 -12 15 -73 53
-73 46z"/>
<path d="M3823 2905 c0 -8 4 -12 9 -9 4 3 18 -11 29 -31 26 -43 35 -41 13 3
-18 36 -51 60 -51 37z"/>
<path d="M3858 2820 c15 -33 28 -56 30 -50 4 10 -37 98 -49 106 -4 2 5 -23 19
-56z"/>
<path d="M3822 2630 c0 -14 2 -19 5 -12 2 6 2 18 0 25 -3 6 -5 1 -5 -13z"/>
<path d="M3845 2449 c-9 -17 -15 -33 -13 -35 3 -2 12 12 21 31 21 43 13 47 -8
4z"/>
<path d="M3851 2413 c-10 -26 -10 -27 4 -9 8 11 15 23 15 28 0 15 -7 8 -19
-19z"/>
<path d="M2634 2565 c0 -49 1 -71 3 -48 2 23 2 64 0 90 -2 26 -3 8 -3 -42z"/>
<path d="M2016 2483 c12 -57 59 -135 106 -179 56 -52 155 -101 171 -85 8 8 6
11 -7 11 -9 0 -41 11 -71 25 -72 35 -148 118 -176 195 -23 64 -33 78 -23 33z"/>
<path d="M1276 2480 c31 -118 167 -235 296 -254 61 -9 62 -9 66 2 1 5 -11 9
-28 10 -124 3 -244 85 -310 209 -17 32 -28 47 -24 33z"/>
<path d="M2040 2475 c0 -5 14 -34 30 -62 36 -63 112 -126 177 -146 60 -19 145
-28 141 -15 -2 5 -28 11 -58 13 -69 4 -140 32 -119 47 11 7 9 8 -7 4 -28 -8
-97 52 -134 118 -17 28 -30 47 -30 41z"/>
<path d="M1265 2445 c20 -95 139 -218 243 -249 44 -14 20 10 -35 34 -72 31
-147 106 -185 185 -18 37 -27 48 -23 30z"/>
<path d="M1460 2300 c0 -5 5 -10 11 -10 5 0 7 5 4 10 -3 6 -8 10 -11 10 -2 0
-4 -4 -4 -10z"/>
<path d="M1528 2273 c7 -3 16 -2 19 1 4 3 -2 6 -13 5 -11 0 -14 -3 -6 -6z"/>
<path d="M2180 2226 c0 -2 7 -7 16 -10 8 -3 12 -2 9 4 -6 10 -25 14 -25 6z"/>
<path d="M2328 2223 c7 -3 16 -2 19 1 4 3 -2 6 -13 5 -11 0 -14 -3 -6 -6z"/>
<path d="M1435 2200 c3 -5 11 -10 16 -10 6 0 7 5 4 10 -3 6 -11 10 -16 10 -6
0 -7 -4 -4 -10z"/>
<path d="M2230 2200 c8 -5 22 -10 30 -10 13 0 13 1 0 10 -8 5 -22 10 -30 10
-13 0 -13 -1 0 -10z"/>
<path d="M1475 2180 c3 -5 11 -10 16 -10 6 0 7 5 4 10 -3 6 -11 10 -16 10 -6
0 -7 -4 -4 -10z"/>
<path d="M2185 2180 c3 -5 8 -10 11 -10 2 0 4 5 4 10 0 6 -5 10 -11 10 -5 0
-7 -4 -4 -10z"/>
<path d="M2228 2163 c7 -3 16 -2 19 1 4 3 -2 6 -13 5 -11 0 -14 -3 -6 -6z"/>
<path d="M4146 2565 c3 -11 7 -27 9 -35 2 -8 19 -62 39 -120 20 -58 37 -114
39 -125 2 -11 9 -30 15 -41 6 -12 8 -24 5 -28 -3 -3 -1 -6 6 -6 9 0 11 6 6 18
-4 9 -11 31 -16 47 -18 68 -81 252 -95 280 -8 17 -12 21 -8 10z"/>
<path d="M4266 2177 l6 -28 -73 5 c-41 3 -90 2 -109 -3 -26 -7 -6 -9 83 -10
124 -1 134 3 102 45 -15 18 -15 18 -9 -9z"/>
<path d="M877 2174 c-6 -6 9 -36 72 -142 34 -57 31 -54 93 -126 132 -154 353
-305 498 -341 8 -2 27 -8 43 -14 15 -6 27 -8 27 -5 0 4 7 1 15 -6 9 -7 18 -10
21 -7 3 3 20 1 37 -4 30 -9 138 -21 182 -20 10 0 24 -4 31 -10 28 -23 62 17
44 52 -11 20 -50 26 -50 8 0 -9 -22 -10 -77 -5 -110 9 -113 9 -205 32 -5 1 -9
2 -10 4 -2 1 -10 3 -18 5 -21 4 -157 60 -207 84 -79 39 -224 150 -283 218 -72
81 -90 103 -90 108 0 3 -9 15 -20 27 -11 12 -31 44 -46 72 -29 58 -47 79 -57
70z m1030 -644 c-1 -12 -5 -16 -10 -11 -5 5 -6 14 -3 20 11 16 15 13 13 -9z"/>
<path d="M4012 2148 c6 -18 28 -21 28 -4 0 9 -7 16 -16 16 -9 0 -14 -5 -12
-12z"/>
<path d="M2745 2106 c-53 -24 -76 -58 -82 -123 -5 -57 -4 -61 28 -97 30 -34
37 -38 71 -33 21 3 38 3 38 0 0 -3 -25 -32 -55 -65 -103 -111 -122 -188 -61
-247 l34 -33 180 4 180 3 4 64 c2 36 -2 77 -9 94 -7 16 -13 31 -13 33 0 2 6 1
13 -1 9 -4 12 11 13 52 1 45 0 52 -7 34 -5 -13 -7 -32 -4 -42 3 -9 1 -20 -5
-24 -7 -4 -10 40 -10 135 0 117 3 147 18 172 27 47 79 68 167 68 82 0 114 -11
155 -55 24 -26 25 -31 28 -188 3 -192 -5 -217 -78 -255 -62 -32 -173 -28 -220
7 -48 35 -47 18 1 -26 55 -50 91 -64 164 -64 64 0 109 12 138 38 16 15 20 14
50 -15 l32 -31 182 2 183 2 0 55 0 54 43 -41 c57 -57 99 -73 180 -69 111 6
167 54 175 150 5 67 -2 100 -29 127 l-20 20 21 26 c22 29 27 93 9 140 -14 37
-64 88 -116 118 -69 41 -197 30 -255 -21 -9 -9 -20 -30 -23 -46 l-7 -30 -47
45 c-57 57 -104 77 -178 77 -70 0 -131 -31 -153 -77 l-15 -31 -45 40 c-59 53
-99 68 -180 68 -79 0 -142 -28 -168 -75 -9 -16 -18 -32 -20 -34 -1 -3 -21 14
-45 36 -23 22 -56 48 -74 57 -39 20 -146 21 -188 2z m1398 -30 c46 -25 67 -61
67 -115 0 -54 -7 -69 -42 -87 l-29 -15 33 -22 c61 -42 64 -153 4 -213 -85 -85
-283 -57 -300 44 -12 77 -10 82 35 82 22 0 38 -4 34 -9 -3 -6 3 -24 14 -42 19
-32 19 -55 0 -43 -5 3 -6 10 -3 16 4 6 2 8 -4 4 -6 -3 -14 -1 -18 5 -4 8 -3 9
4 5 19 -12 14 9 -7 28 -17 15 -19 15 -25 1 -4 -11 -2 -14 6 -9 7 5 9 2 5 -9
-4 -11 6 -26 31 -47 20 -16 31 -30 25 -30 -6 0 -18 7 -27 15 -17 17 -26 19
-26 6 0 -13 68 -43 88 -38 12 3 10 5 -6 6 -13 0 -21 5 -17 10 3 5 1 12 -5 16
-6 4 -8 11 -4 17 4 5 18 -2 35 -18 16 -15 29 -24 29 -20 0 5 -11 17 -25 28
-28 22 -68 92 -58 102 17 17 32 3 35 -31 3 -35 6 -38 33 -38 29 0 30 1 33 55
4 61 -10 80 -59 80 -25 0 -27 3 -27 45 -1 44 -1 45 31 45 42 0 57 15 57 60 0
39 -14 60 -41 60 -19 0 -29 -20 -29 -59 0 -26 -2 -27 -60 -29 l-60 -2 0 39 c0
82 35 118 124 131 64 9 101 3 149 -24z m-1203 6 c53 -26 83 -77 76 -130 -8
-63 -30 -98 -115 -187 -62 -64 -72 -80 -56 -82 11 -1 55 -5 98 -8 l77 -7 0
-44 0 -44 -179 0 -180 0 6 38 c9 61 27 95 84 157 100 110 129 168 110 218 -14
37 -58 38 -67 2 -3 -14 -3 -36 0 -50 6 -25 5 -25 -53 -25 -45 0 -60 4 -65 16
-9 24 0 29 21 13 16 -13 17 -12 5 3 -9 11 -10 18 -2 23 5 3 10 12 10 18 0 7
-5 4 -11 -5 -11 -19 -29 -24 -29 -8 0 5 12 21 28 36 15 15 19 22 9 14 -9 -7
-20 -11 -22 -8 -7 6 35 53 60 66 32 18 155 15 195 -6z m793 4 c72 -30 103
-104 77 -182 -8 -24 -45 -72 -99 -128 -68 -72 -82 -91 -66 -93 11 -1 55 -5 98
-8 l77 -7 0 -44 0 -44 -180 0 -180 0 0 30 c0 46 19 79 98 170 41 47 83 102 93
122 32 63 21 118 -23 118 -23 0 -41 -36 -34 -70 5 -28 5 -28 -56 -32 -69 -3
-73 1 -64 65 7 47 21 75 32 64 4 -3 1 -13 -6 -22 -11 -13 -10 -14 4 -9 12 5
16 14 12 30 -5 18 0 26 21 38 36 19 153 21 196 2z m-893 -121 c0 -15 -7 -39
-15 -54 -11 -23 -21 -28 -44 -27 -37 2 -48 11 -15 12 36 3 54 22 54 60 0 19 5
34 10 34 6 0 10 -11 10 -25z m800 -2 c-1 -47 -24 -77 -61 -79 -26 -2 -29 0
-15 8 10 5 20 7 23 4 11 -11 32 29 33 62 0 17 5 32 10 32 6 0 10 -12 10 -27z
m390 -3 c0 -16 -4 -30 -8 -30 -5 0 -9 14 -10 30 0 17 4 30 9 30 5 0 9 -13 9
-30z m200 -105 c-6 -8 -18 -11 -26 -8 -11 4 -10 10 6 33 11 15 21 39 22 52 1
12 3 4 5 -20 2 -24 -1 -50 -7 -57z m-376 37 c-12 -49 -42 -97 -92 -145 -28
-27 -57 -47 -66 -45 -11 2 2 22 48 71 63 65 96 115 96 144 0 8 5 11 10 8 6 -3
7 -18 4 -33z m-374 3 c0 -12 -19 -12 -23 0 -4 9 -1 12 9 8 7 -3 14 -7 14 -8z
m458 -25 c19 0 22 -6 22 -39 0 -28 6 -43 23 -55 21 -16 19 -17 -52 -13 l-73 4
4 -58 4 -59 -22 21 c-17 16 -32 20 -58 17 -20 -2 -36 -2 -36 0 0 2 25 31 55
64 38 41 58 73 66 104 11 41 13 44 29 29 9 -8 26 -15 38 -15z m-908 -19 c0
-35 -91 -141 -121 -141 -27 0 -24 6 29 58 26 26 57 62 67 80 11 17 21 32 22
32 2 0 3 -13 3 -29z m488 12 c7 -12 18 -15 46 -10 20 3 36 3 36 -1 -1 -4 -25
-34 -55 -66 l-55 -59 0 76 c0 75 9 94 28 60z m-61 -70 c-3 -10 -5 -2 -5 17 0
19 2 27 5 18 2 -10 2 -26 0 -35z m-393 -133 c5 -8 -2 -5 -16 8 -17 15 -37 22
-64 22 l-40 0 50 53 51 52 5 -60 c3 -33 9 -67 14 -75z m970 76 c2 -24 -1 -35
-8 -33 -11 4 -18 55 -9 70 8 14 14 1 17 -37z m216 -81 c0 -29 -30 -75 -60 -90
-41 -21 -126 -33 -115 -16 4 7 16 11 26 8 11 -3 19 -1 19 4 0 5 3 8 8 7 26 -5
85 43 96 80 8 25 26 30 26 7z m-810 -45 c0 -29 -75 -66 -104 -51 -14 8 -15 10
-3 6 11 -3 31 8 55 30 43 40 52 43 52 15z m418 -5 c-3 -3 -9 2 -12 12 -6 14
-5 15 5 6 7 -7 10 -15 7 -18z m-13 -53 c-12 -12 -315 -15 -315 -3 0 7 50 11
150 11 134 0 151 2 158 18 6 16 7 16 10 -1 2 -10 1 -22 -3 -25z m-800 0 c-4
-4 -79 -8 -168 -8 -138 -1 -149 0 -77 6 47 4 117 8 157 9 44 1 75 6 79 13 6 9
9 9 12 -1 2 -7 1 -15 -3 -19z m271 -5 c4 -4 -5 -7 -19 -7 -15 0 -27 4 -27 10
0 11 35 8 46 -3z"/>
<path d="M4040 2070 c0 -15 39 -72 40 -58 0 4 -9 22 -20 40 -11 18 -20 26 -20
18z"/>
<path d="M4100 2054 c32 -27 35 -48 3 -23 -16 13 -17 12 -5 -3 8 -9 11 -21 8
-26 -7 -11 13 -72 22 -72 4 0 7 25 7 56 0 47 -4 59 -24 75 -36 29 -47 23 -11
-7z m30 -75 c0 -6 -4 -7 -10 -4 -5 3 -10 11 -10 16 0 6 5 7 10 4 6 -3 10 -11
10 -16z"/>
<path d="M3905 2044 c-5 -10 -9 -23 -10 -29 0 -5 -4 -16 -9 -23 -5 -8 -4 -18
1 -23 9 -9 11 -6 15 39 0 9 5 20 11 23 5 4 7 13 5 20 -3 9 -7 7 -13 -7z"/>
<path d="M4080 1979 c0 -14 7 -34 15 -45 18 -24 18 -19 0 31 -12 33 -14 36
-15 14z"/>
<path d="M2841 1845 c-75 -76 -56 -107 37 -59 39 20 51 45 42 84 l-8 35 -1
-40 c-1 -22 -6 -47 -12 -55 -8 -11 -9 -8 -5 15 6 29 6 29 -17 -7 -22 -38 -46
-54 -28 -19 6 10 7 22 3 26 -4 5 -1 5 7 0 9 -5 12 -4 8 2 -4 6 3 23 14 37 37
47 15 37 -40 -19z m-3 -45 c-13 -20 -38 -35 -38 -23 0 10 32 43 42 43 4 0 3
-9 -4 -20z"/>
<path d="M3495 1980 c-3 -11 -2 -27 3 -37 8 -13 10 -9 9 20 -1 42 -3 45 -12
17z"/>
<path d="M3628 1835 c-32 -34 -58 -66 -58 -70 0 -10 72 4 88 17 6 6 12 7 12 3
0 -5 9 0 19 9 20 18 25 97 6 102 -5 1 -36 -26 -67 -61z m67 13 c-4 -24 -12
-47 -17 -53 -7 -7 -8 0 -4 20 l7 30 -21 -34 c-12 -18 -24 -31 -27 -28 -3 3 -1
12 3 19 5 7 9 15 9 18 1 13 40 70 48 70 5 0 6 -19 2 -42z m-75 -53 c-13 -14
-28 -25 -33 -25 -6 0 0 11 13 25 13 14 28 25 33 25 6 0 0 -11 -13 -25z"/>
<path d="M3222 2008 c-8 -8 -12 -59 -12 -165 0 -133 2 -153 17 -162 11 -5 24
-6 34 0 15 7 17 29 17 161 0 88 -5 158 -10 166 -13 15 -31 15 -46 0z m32 -168
c-2 -128 -5 -147 -13 -95 -8 52 -1 246 8 220 4 -11 6 -67 5 -125z"/>
<path d="M3081 1994 c0 -11 3 -14 6 -6 3 7 2 16 -1 19 -3 4 -6 -2 -5 -13z"/>
<path d="M3310 1986 c0 -9 5 -16 10 -16 6 0 10 4 10 9 0 6 -4 13 -10 16 -5 3
-10 -1 -10 -9z"/>
<path d="M3377 1973 c-2 -5 -1 -19 4 -33 7 -23 7 -23 8 8 1 31 -3 40 -12 25z"/>
<path d="M3081 1944 c0 -11 3 -14 6 -6 3 7 2 16 -1 19 -3 4 -6 -2 -5 -13z"/>
<path d="M3294 1940 c0 -13 4 -16 10 -10 7 7 7 13 0 20 -6 6 -10 3 -10 -10z"/>
<path d="M3145 1914 c-14 -21 -19 -24 -27 -13 -7 10 -8 8 -3 -8 3 -12 1 -24
-5 -28 -24 -15 5 -97 38 -110 11 -4 12 -2 5 7 -5 7 -10 40 -11 73 -2 38 1 55
7 46 6 -9 10 -3 13 23 2 20 3 36 2 36 -1 0 -9 -12 -19 -26z m-11 -99 l6 -30
-15 25 c-8 14 -14 32 -15 40 0 23 17 -2 24 -35z"/>
<path d="M3176 1911 c-10 -15 -20 -147 -12 -139 8 7 27 140 21 146 -2 2 -6 -1
-9 -7z"/>
<path d="M3077 1891 c-4 -17 -3 -21 5 -13 5 5 8 16 6 23 -3 8 -7 3 -11 -10z"/>
<path d="M3294 1890 c0 -13 4 -16 10 -10 7 7 7 13 0 20 -6 6 -10 3 -10 -10z"/>
<path d="M3329 1888 c-1 -13 -1 -27 0 -32 1 -5 -1 -16 -5 -25 -9 -22 -11 -72
-2 -77 6 -4 15 60 17 124 1 36 -8 45 -10 10z"/>
<path d="M3370 1910 c0 -3 7 -23 16 -45 l15 -40 -6 35 c-3 19 -10 39 -15 44
-6 6 -10 8 -10 6z"/>
<path d="M3077 1841 c-4 -17 -3 -21 5 -13 5 5 8 16 6 23 -3 8 -7 3 -11 -10z"/>
<path d="M3294 1840 c0 -13 4 -16 10 -10 7 7 7 13 0 20 -6 6 -10 3 -10 -10z"/>
<path d="M3349 1810 c-3 -25 -9 -53 -13 -62 -5 -11 -4 -18 2 -18 14 0 25 56
20 96 -3 24 -5 21 -9 -16z"/>
<path d="M3371 1818 c-1 -21 4 -38 9 -38 12 0 12 27 0 55 -7 16 -9 13 -9 -17z"/>
<path d="M3294 1790 c0 -13 4 -16 10 -10 7 7 7 13 0 20 -6 6 -10 3 -10 -10z"/>
<path d="M3294 1740 c0 -13 4 -16 10 -10 7 7 7 13 0 20 -6 6 -10 3 -10 -10z"/>
<path d="M2158 1603 c7 -3 16 -2 19 1 4 3 -2 6 -13 5 -11 0 -14 -3 -6 -6z"/>
</g>
</svg>
